<svg width="118" height="21" viewBox="0 0 118 21" fill="none" xmlns="http://www.w3.org/2000/svg">
<path d="M13.5898 11.2148C13.8359 10.9688 13.8359 10.5586 13.5898 10.2852L8.99609 5.69141C8.55859 5.28125 7.875 5.58203 7.875 6.15625V8.78125H4.15625C3.77344 8.78125 3.5 9.08203 3.5 9.4375V12.0625C3.5 12.4453 3.77344 12.7188 4.15625 12.7188H7.875V15.3438C7.875 15.9453 8.58594 16.2188 8.99609 15.8086L13.5898 11.2148ZM5.25 15.6719V14.5781C5.25 14.4141 5.08594 14.25 4.92188 14.25H2.625C2.13281 14.25 1.75 13.8672 1.75 13.375V8.125C1.75 7.66016 2.13281 7.25 2.625 7.25H4.92188C5.08594 7.25 5.25 7.11328 5.25 6.92188V5.82812C5.25 5.66406 5.08594 5.5 4.92188 5.5H2.625C1.17578 5.5 0 6.67578 0 8.125V13.375C0 14.8242 1.17578 16 2.625 16H4.92188C5.08594 16 5.25 15.8633 5.25 15.6719Z" fill="#212529"/>
<path d="M38.13 16.168C37.3087 16.168 36.6087 16.0187 36.03 15.72C35.4607 15.4213 34.9707 15.02 34.56 14.516L35.652 13.494C35.9973 13.914 36.3753 14.2313 36.786 14.446C37.206 14.6607 37.682 14.768 38.214 14.768C38.8393 14.768 39.3107 14.628 39.628 14.348C39.9453 14.068 40.104 13.69 40.104 13.214C40.104 12.8313 39.992 12.528 39.768 12.304C39.544 12.08 39.1473 11.912 38.578 11.8L37.71 11.646C36.758 11.4687 36.044 11.156 35.568 10.708C35.092 10.26 34.854 9.644 34.854 8.86C34.854 8.43067 34.9333 8.04333 35.092 7.698C35.26 7.34333 35.4887 7.04933 35.778 6.816C36.0767 6.57333 36.436 6.38667 36.856 6.256C37.276 6.12533 37.7473 6.06 38.27 6.06C39.0073 6.06 39.6467 6.19067 40.188 6.452C40.7293 6.704 41.1913 7.07267 41.574 7.558L40.468 8.538C40.216 8.21133 39.908 7.95 39.544 7.754C39.18 7.558 38.7273 7.46 38.186 7.46C37.626 7.46 37.192 7.572 36.884 7.796C36.576 8.02 36.422 8.34667 36.422 8.776C36.422 9.18667 36.548 9.49467 36.8 9.7C37.052 9.896 37.444 10.0453 37.976 10.148L38.844 10.33C39.824 10.5167 40.538 10.834 40.986 11.282C41.4433 11.73 41.672 12.346 41.672 13.13C41.672 13.5873 41.5927 14.0027 41.434 14.376C41.2753 14.7493 41.042 15.0713 40.734 15.342C40.4353 15.6033 40.0667 15.8087 39.628 15.958C39.1893 16.098 38.69 16.168 38.13 16.168ZM48.7932 16C48.3919 16 48.0839 15.888 47.8692 15.664C47.6545 15.4307 47.5239 15.1367 47.4772 14.782H47.4072C47.2672 15.2393 47.0105 15.5847 46.6372 15.818C46.2639 16.0513 45.8112 16.168 45.2792 16.168C44.5232 16.168 43.9399 15.972 43.5292 15.58C43.1279 15.188 42.9272 14.6607 42.9272 13.998C42.9272 13.27 43.1885 12.724 43.7112 12.36C44.2432 11.996 45.0179 11.814 46.0352 11.814H47.3512V11.198C47.3512 10.75 47.2299 10.4047 46.9872 10.162C46.7445 9.91933 46.3665 9.798 45.8532 9.798C45.4239 9.798 45.0739 9.89133 44.8032 10.078C44.5325 10.2647 44.3039 10.5027 44.1172 10.792L43.2072 9.966C43.4499 9.55533 43.7905 9.21933 44.2292 8.958C44.6679 8.68733 45.2419 8.552 45.9512 8.552C46.8939 8.552 47.6172 8.77133 48.1212 9.21C48.6252 9.64867 48.8772 10.2787 48.8772 11.1V14.754H49.6472V16H48.7932ZM45.7132 15.006C46.1892 15.006 46.5812 14.9033 46.8892 14.698C47.1972 14.4833 47.3512 14.1987 47.3512 13.844V12.794H46.0632C45.0085 12.794 44.4812 13.1207 44.4812 13.774V14.026C44.4812 14.3527 44.5885 14.6 44.8032 14.768C45.0272 14.9267 45.3305 15.006 45.7132 15.006ZM51.9128 7.418C51.5954 7.418 51.3621 7.34333 51.2128 7.194C51.0728 7.04467 51.0028 6.85333 51.0028 6.62V6.382C51.0028 6.14867 51.0728 5.95733 51.2128 5.808C51.3621 5.65867 51.5954 5.584 51.9128 5.584C52.2301 5.584 52.4588 5.65867 52.5988 5.808C52.7388 5.95733 52.8088 6.14867 52.8088 6.382V6.62C52.8088 6.85333 52.7388 7.04467 52.5988 7.194C52.4588 7.34333 52.2301 7.418 51.9128 7.418ZM51.1428 8.72H52.6688V16H51.1428V8.72ZM54.8479 16V8.72H56.3739V10.12H56.4439C56.5465 9.74667 56.7612 9.42 57.0879 9.14C57.4145 8.86 57.8672 8.72 58.4459 8.72H58.8519V10.19H58.2499C57.6432 10.19 57.1765 10.288 56.8499 10.484C56.5325 10.68 56.3739 10.9693 56.3739 11.352V16H54.8479ZM68.0938 14.796H68.0238C67.8652 15.2253 67.6038 15.5613 67.2398 15.804C66.8852 16.0467 66.4652 16.168 65.9798 16.168C65.0558 16.168 64.3418 15.8367 63.8378 15.174C63.3338 14.502 63.0818 13.564 63.0818 12.36C63.0818 11.156 63.3338 10.2227 63.8378 9.56C64.3418 8.888 65.0558 8.552 65.9798 8.552C66.4652 8.552 66.8852 8.67333 67.2398 8.916C67.6038 9.14933 67.8652 9.48533 68.0238 9.924H68.0938V5.64H69.6198V16H68.0938V14.796ZM66.4418 14.852C66.9085 14.852 67.3005 14.74 67.6178 14.516C67.9352 14.2827 68.0938 13.9793 68.0938 13.606V11.114C68.0938 10.7407 67.9352 10.442 67.6178 10.218C67.3005 9.98467 66.9085 9.868 66.4418 9.868C65.9098 9.868 65.4852 10.0407 65.1678 10.386C64.8505 10.722 64.6918 11.17 64.6918 11.73V12.99C64.6918 13.55 64.8505 14.0027 65.1678 14.348C65.4852 14.684 65.9098 14.852 66.4418 14.852ZM77.135 16C76.7337 16 76.4257 15.888 76.211 15.664C75.9963 15.4307 75.8657 15.1367 75.819 14.782H75.749C75.609 15.2393 75.3523 15.5847 74.979 15.818C74.6057 16.0513 74.153 16.168 73.621 16.168C72.865 16.168 72.2817 15.972 71.871 15.58C71.4697 15.188 71.269 14.6607 71.269 13.998C71.269 13.27 71.5303 12.724 72.053 12.36C72.585 11.996 73.3597 11.814 74.377 11.814H75.693V11.198C75.693 10.75 75.5717 10.4047 75.329 10.162C75.0863 9.91933 74.7083 9.798 74.195 9.798C73.7657 9.798 73.4157 9.89133 73.145 10.078C72.8743 10.2647 72.6457 10.5027 72.459 10.792L71.549 9.966C71.7917 9.55533 72.1323 9.21933 72.571 8.958C73.0097 8.68733 73.5837 8.552 74.293 8.552C75.2357 8.552 75.959 8.77133 76.463 9.21C76.967 9.64867 77.219 10.2787 77.219 11.1V14.754H77.989V16H77.135ZM74.055 15.006C74.531 15.006 74.923 14.9033 75.231 14.698C75.539 14.4833 75.693 14.1987 75.693 13.844V12.794H74.405C73.3503 12.794 72.823 13.1207 72.823 13.774V14.026C72.823 14.3527 72.9303 14.6 73.145 14.768C73.369 14.9267 73.6723 15.006 74.055 15.006ZM85.6072 16.168C85.0845 16.168 84.6178 16.0793 84.2072 15.902C83.7965 15.7247 83.4512 15.4727 83.1712 15.146C82.8912 14.81 82.6765 14.4087 82.5272 13.942C82.3778 13.466 82.3032 12.9387 82.3032 12.36C82.3032 11.7813 82.3778 11.2587 82.5272 10.792C82.6765 10.316 82.8912 9.91467 83.1712 9.588C83.4512 9.252 83.7965 8.99533 84.2072 8.818C84.6178 8.64067 85.0845 8.552 85.6072 8.552C86.3352 8.552 86.9325 8.71533 87.3992 9.042C87.8658 9.36867 88.2065 9.80267 88.4212 10.344L87.1612 10.932C87.0585 10.596 86.8765 10.33 86.6152 10.134C86.3632 9.92867 86.0272 9.826 85.6072 9.826C85.0472 9.826 84.6225 10.0033 84.3332 10.358C84.0532 10.7033 83.9132 11.156 83.9132 11.716V13.018C83.9132 13.578 84.0532 14.0353 84.3332 14.39C84.6225 14.7353 85.0472 14.908 85.6072 14.908C86.0552 14.908 86.4098 14.8007 86.6712 14.586C86.9418 14.362 87.1565 14.068 87.3152 13.704L88.4772 14.32C88.2345 14.9173 87.8705 15.3747 87.3852 15.692C86.8998 16.0093 86.3072 16.168 85.6072 16.168ZM92.7039 16.168C92.1999 16.168 91.7379 16.0793 91.3179 15.902C90.9072 15.7247 90.5572 15.4727 90.2679 15.146C89.9785 14.81 89.7545 14.4087 89.5959 13.942C89.4372 13.466 89.3579 12.9387 89.3579 12.36C89.3579 11.7813 89.4372 11.2587 89.5959 10.792C89.7545 10.316 89.9785 9.91467 90.2679 9.588C90.5572 9.252 90.9072 8.99533 91.3179 8.818C91.7379 8.64067 92.1999 8.552 92.7039 8.552C93.2079 8.552 93.6652 8.64067 94.0759 8.818C94.4959 8.99533 94.8505 9.252 95.1399 9.588C95.4292 9.91467 95.6532 10.316 95.8119 10.792C95.9705 11.2587 96.0499 11.7813 96.0499 12.36C96.0499 12.9387 95.9705 13.466 95.8119 13.942C95.6532 14.4087 95.4292 14.81 95.1399 15.146C94.8505 15.4727 94.4959 15.7247 94.0759 15.902C93.6652 16.0793 93.2079 16.168 92.7039 16.168ZM92.7039 14.908C93.2265 14.908 93.6465 14.7493 93.9639 14.432C94.2812 14.1053 94.4399 13.62 94.4399 12.976V11.744C94.4399 11.1 94.2812 10.6193 93.9639 10.302C93.6465 9.97533 93.2265 9.812 92.7039 9.812C92.1812 9.812 91.7612 9.97533 91.4439 10.302C91.1265 10.6193 90.9679 11.1 90.9679 11.744V12.976C90.9679 13.62 91.1265 14.1053 91.4439 14.432C91.7612 14.7493 92.1812 14.908 92.7039 14.908ZM97.7502 16V8.72H99.2762V9.924H99.3462C99.5049 9.532 99.7429 9.20533 100.06 8.944C100.387 8.68267 100.83 8.552 101.39 8.552C102.137 8.552 102.716 8.79933 103.126 9.294C103.546 9.77933 103.756 10.4747 103.756 11.38V16H102.23V11.576C102.23 10.4373 101.773 9.868 100.858 9.868C100.662 9.868 100.466 9.896 100.27 9.952C100.084 9.99867 99.9155 10.0733 99.7662 10.176C99.6169 10.2787 99.4955 10.4093 99.4022 10.568C99.3182 10.7267 99.2762 10.9133 99.2762 11.128V16H97.7502ZM107.887 16C107.355 16 106.954 15.8647 106.683 15.594C106.413 15.314 106.277 14.922 106.277 14.418V9.966H105.143V8.72H105.759C106.011 8.72 106.184 8.664 106.277 8.552C106.38 8.44 106.431 8.258 106.431 8.006V6.732H107.803V8.72H109.329V9.966H107.803V14.754H109.217V16H107.887ZM116.319 16C115.917 16 115.609 15.888 115.395 15.664C115.18 15.4307 115.049 15.1367 115.003 14.782H114.933C114.793 15.2393 114.536 15.5847 114.163 15.818C113.789 16.0513 113.337 16.168 112.805 16.168C112.049 16.168 111.465 15.972 111.055 15.58C110.653 15.188 110.453 14.6607 110.453 13.998C110.453 13.27 110.714 12.724 111.237 12.36C111.769 11.996 112.543 11.814 113.561 11.814H114.877V11.198C114.877 10.75 114.755 10.4047 114.513 10.162C114.27 9.91933 113.892 9.798 113.379 9.798C112.949 9.798 112.599 9.89133 112.329 10.078C112.058 10.2647 111.829 10.5027 111.643 10.792L110.733 9.966C110.975 9.55533 111.316 9.21933 111.755 8.958C112.193 8.68733 112.767 8.552 113.477 8.552C114.419 8.552 115.143 8.77133 115.647 9.21C116.151 9.64867 116.403 10.2787 116.403 11.1V14.754H117.173V16H116.319ZM113.239 15.006C113.715 15.006 114.107 14.9033 114.415 14.698C114.723 14.4833 114.877 14.1987 114.877 13.844V12.794H113.589C112.534 12.794 112.007 13.1207 112.007 13.774V14.026C112.007 14.3527 112.114 14.6 112.329 14.768C112.553 14.9267 112.856 15.006 113.239 15.006Z" fill="#212529"/>
</svg>
